<?xml version="1.0" encoding="utf-8"?>
<!-- Generator: Adobe Adobe Illustrator 24.2.0, SVG Export Plug-In . SVG Version: 6.00 Build 0)  -->
<svg version="1.1" id="Vector_layer_1_" xmlns="http://www.w3.org/2000/svg" xmlns:xlink="http://www.w3.org/1999/xlink" x="0px"
	 y="0px" width="2100px" height="2100px" viewBox="0 0 2100 2100" style="enable-background:new 0 0 2100 2100;"
	 xml:space="preserve">
<style type="text/css">
	.st0{fill:#B8954A;}
	.st1{fill:#9F313C;}
</style>
<path class="st0" d="M457.37,1248.31c-0.87-5.12-1.56-10.95-2.08-17.47c-0.87-9.63-1.39-15.45-1.56-17.47
	c-6.6,1.24-24.57,1.86-53.91,1.86c-10.94,0-24.96-0.08-42.06-0.23c-17.1-0.15-25.48-0.23-25.13-0.23c-4.17,0-4.17,0-4.17,0
	c-3.13,0-4.69,0.78-4.69,2.33c0,1.71,1.39,2.56,4.17,2.56c7.29,0.16,11.76,0.58,13.41,1.28c1.65,0.7,2.56,2.45,2.73,5.24
	c0.26,133.71,0.26,133.71,0.26,133.71c0,6.06-0.52,9.67-1.56,10.83c-1.04,1.16-4.56,1.9-10.55,2.21c-5.99,0.31-8.99,1.09-8.99,2.33
	c0,1.24,1.65,1.86,4.95,1.86c38.81-0.23,38.81-0.23,38.81-0.23c1.39,0,4.08,0,8.07,0c4.17,0.15,7.46,0.23,9.9,0.23
	c2.6,0,2.6,0,2.6,0c3.47,0,5.21-0.7,5.21-2.1c0-1.24-1.39-1.86-4.17-1.86c-6.6,0.16-10.85-0.08-12.76-0.7
	c-4-1.24-5.99-4.11-5.99-8.62c0.52-45.66,0.52-45.66,0.52-45.66c-0.26-23.76-0.26-23.76-0.26-23.76c4.86-0.31,10.5-0.47,16.93-0.47
	c12.15,0,20.27,1.16,24.35,3.49c4.08,2.33,6.81,8.23,8.2,17.7c0.87,6.21,1.47,9.78,1.82,10.72c0.35,0.93,1.21,1.4,2.6,1.4
	c1.73,0,2.6-0.93,2.6-2.8c0-1.24-0.09-2.17-0.26-2.8c-0.7-6.83-1.04-16.15-1.04-27.95c0-9.16,0.26-19.1,0.78-29.82
	c0.17-0.93,0.26-2.1,0.26-3.49c0-2.33-0.87-3.49-2.6-3.49c-1.74,0-2.78,1.79-3.13,5.36c-1.04,12.58-4.17,20.23-9.38,22.94
	c-5.21,2.72-18.93,4-41.15,3.84c0-68.02,0-68.02,0-68.02c11.11-0.47,20.66-0.7,28.65-0.7c10.76,0,17.71,0.16,20.84,0.47
	c8.68,0.78,15.11,2.8,19.27,6.06c6.42,5.12,10.68,13.28,12.76,24.46c0.69,3.88,1.91,5.82,3.65,5.82c1.73,0,2.6-1.08,2.6-3.26
	C457.89,1252.35,457.72,1250.49,457.37,1248.31L457.37,1248.31z M565.33,1285.23c-11.03-10.64-24.7-15.96-41.02-15.96
	c-17.19,0-31.3,5.09-42.32,15.26c-11.03,10.17-16.54,23.26-16.54,39.25c0,15.37,5.77,28.38,17.32,39.02
	c11.54,10.64,25.74,15.96,42.58,15.96c15.8,0,29.17-5.24,40.11-15.72c10.94-10.48,16.41-23.25,16.41-38.32
	C581.86,1309.03,576.35,1295.87,565.33,1285.23z M525.35,1375.5c-11.11,0-19.79-4.5-26.04-13.51c-6.25-9-9.38-21.51-9.38-37.5
	c0-13.35,1.99-24.38,5.99-33.08c5.73-12.42,14.93-18.64,27.61-18.64c9.2,0,16.41,3.34,21.62,10.02
	c8.16,10.41,12.24,24.61,12.24,42.63C557.38,1358.81,546.7,1375.5,525.35,1375.5L525.35,1375.5z M691.77,1345.68
	c-1.56,0-2.52,1.86-2.86,5.59c-1.04,8.54-3.48,14.13-7.29,16.77c-4.69,3.26-16.41,4.89-35.16,4.89c-3.13,0-8.16-0.08-15.11-0.23
	c0-86.42,0-86.42,0-86.42c0-5.74,0.26-9.08,0.78-10.02c0.52-0.93,2.17-1.47,4.95-1.63c5.73-0.15,8.59-0.7,8.59-1.63
	c0-1.4-1.65-2.1-4.95-2.1c-2.08,0-4.08,0.08-5.99,0.23c-35.94-0.23-35.94-0.23-35.94-0.23c-2.26,0-3.39,0.55-3.39,1.63
	c0,1.24,0.95,1.86,2.86,1.86c0.69,0.16,2.21,0.23,4.56,0.23c2.34,0,3.86,0.16,4.56,0.47c1.56,0.47,2.34,5.05,2.34,13.74
	c0,78.03,0,78.03,0,78.03c0,2.8-0.22,4.51-0.65,5.12c-0.44,0.62-1.61,1.01-3.52,1.16c-6.77,0.47-10.16,1.16-10.16,2.1
	c0,1.09,1.13,1.63,3.39,1.63c21.36-0.23,21.36-0.23,21.36-0.23c44.53,0.47,44.53,0.47,44.53,0.47c12.24,0.23,12.24,0.23,12.24,0.23
	c3.99,0,7.25,0.12,9.77,0.35c2.51,0.23,3.86,0.35,4.04,0.35c1.56,0,2.86-0.08,3.91-0.23c0.35-5.9,0.52-13.2,0.52-21.9
	C695.15,1349.1,694.02,1345.68,691.77,1345.68L691.77,1345.68z M825.63,1373.17c-3.48,0-5.99-0.43-7.55-1.28
	c-1.56-0.85-4.78-3.45-9.64-7.8c-30.73-27.72-30.73-27.72-30.73-27.72c-14.24-12.89-22.49-20.42-24.74-22.59
	c14.23-11.65,24.83-20.42,31.77-26.32c4.69-3.88,8.16-6.68,10.42-8.39c3.47-2.95,6.42-4.35,8.85-4.19c7.29,0.23,7.29,0.23,7.29,0.23
	c3.13,0.16,4.69-0.54,4.69-2.1c0-1.08-1.13-1.71-3.39-1.86c-2.26-0.15-10.07-0.23-23.44-0.23c-7.47,0-11.81,0.08-13.02,0.23
	c-1.22,0.16-1.82,0.7-1.82,1.63c0,1.24,1.04,1.86,3.13,1.86c7.12,0,10.68,0.39,10.68,1.16c0,1.09-16.24,15.06-48.7,41.93
	c0-38.43,0-38.43,0-38.43c0-2.17,0.3-3.45,0.91-3.84c0.61-0.39,2.3-0.66,5.08-0.82c5.73-0.15,8.59-0.78,8.59-1.86
	c0-1.24-1.22-1.86-3.65-1.86c-8.85,0.23-8.85,0.23-8.85,0.23c-6.43,0.16-10.07,0.23-10.94,0.23c-16.93-0.23-16.93-0.23-16.93-0.23
	c-1.04,0-2.34-0.08-3.91-0.23c-1.39,0-2.26,0-2.6,0c-2.43,0-3.65,0.55-3.65,1.63c0,1.4,2.17,2.1,6.51,2.1
	c4.34,0,6.77,0.62,7.29,1.86c0.17,0.47,0.26,2.88,0.26,7.22c0,78.03,0,78.03,0,78.03c0,5.75-0.26,9.08-0.78,10.02
	c-0.52,0.93-2.52,1.4-5.99,1.4c-5.04-0.15-7.55,0.47-7.55,1.86c0,1.24,1.21,1.86,3.65,1.86c1.82,0,1.82,0,1.82,0
	c3.13-0.31,7.98-0.47,14.58-0.47c14.93,0,23.26,0.16,25,0.47c1.82,0,1.82,0,1.82,0c2.6,0,3.91-0.54,3.91-1.63
	c0-1.24-0.96-1.86-2.86-1.86c-5.73-0.15-9.12-0.54-10.16-1.16c-1.04-0.62-1.56-2.8-1.56-6.52c0-41.93,0-41.93,0-41.93
	c24.31,23.76,38.28,37.35,41.93,40.76c3.99,3.88,5.99,6.14,5.99,6.76c0,0.93-1.74,1.55-5.21,1.86c-5.73,0.47-8.59,1.24-8.59,2.33
	c0,0.93,1.56,1.4,4.69,1.4c38.28-0.23,38.28-0.23,38.28-0.23c5.21,0,5.21,0,5.21,0c3.47,0,5.51-0.08,6.12-0.23
	c0.61-0.15,0.91-0.7,0.91-1.63C828.76,1373.71,827.72,1373.17,825.63,1373.17L825.63,1373.17z M1033.98,1372.93
	c-6.77-0.15-11.24-0.7-13.41-1.63c-2.17-0.93-3.95-3.1-5.34-6.52c-24.83-60.56-40.37-98.38-46.62-113.44
	c-7.99-19.25-13.11-31.91-15.37-37.97c-0.35-0.93-0.78-1.4-1.3-1.4c-0.87,0-1.56,0.86-2.08,2.56c-1.3,4.19-1.3,4.19-1.3,4.19
	c-1.04,2.33-1.74,4.43-2.08,6.29c-14.06,34.63-32.29,80.52-54.69,137.67c-1.39,3.73-3.3,6.25-5.73,7.57
	c-2.43,1.32-6.38,2.06-11.85,2.21c-5.47,0.16-8.2,0.93-8.2,2.33c0,1.4,1.22,2.1,3.65,2.1c0.87,0,2-0.08,3.39-0.23
	c2.6-0.31,5.29-0.47,8.07-0.47c2.78,0,5.47,0.08,8.07,0.23c10.59,0.62,19.88,0.93,27.87,0.93c4.51,0,6.77-0.78,6.77-2.33
	c0-1.4-2.52-2.17-7.55-2.33c-8.16-0.47-12.5-0.78-13.02-0.93c-2.08-0.47-3.13-1.78-3.13-3.96c0-3.73,5.21-18.01,15.63-42.86
	c55.73,0,55.73,0,55.73,0c6.08,16.46,9.9,27.1,11.46,31.91c1.3,3.26,1.3,3.26,1.3,3.26c2.08,6.29,2.08,6.29,2.08,6.29
	c0.35,1.09,0.52,1.71,0.52,1.86c0,2.64-7.64,4.04-22.92,4.19c-4.69,0-7.03,0.86-7.03,2.56c0,1.55,1.73,2.33,5.21,2.33
	c1.39,0,2.69-0.08,3.91-0.23c33.08-0.47,33.08-0.47,33.08-0.47c33.08,0.47,33.08,0.47,33.08,0.47c1.39,0.15,2.95,0.23,4.69,0.23
	c2.6,0,3.91-0.7,3.91-2.1S1038.5,1373.09,1033.98,1372.93L1033.98,1372.93z M917.31,1319.59c10.24-27.33,19.01-49.54,26.3-66.62
	c12.5,31.91,12.5,31.91,12.5,31.91c6.42,16.15,11.02,27.72,13.8,34.71C917.31,1319.59,917.31,1319.59,917.31,1319.59z
	 M1138.42,1366.41c-3.48,0-5.21,1.48-5.21,4.43c0,0.47,0.22,1.13,0.65,1.98c0.43,0.86,0.65,1.36,0.65,1.51c0,0.47-0.44,0.7-1.3,0.7
	c-5.38,0-8.59-4.81-9.64-14.44c-1.56-14.13-5.08-23.91-10.55-29.35c-5.47-5.43-15.5-8.85-30.08-10.25
	c13.54-0.78,24.05-3.53,31.51-8.27c7.46-4.74,11.2-10.91,11.2-18.52c0-6.99-3.52-12.61-10.55-16.89c-7.03-4.27-16.37-6.41-28-6.41
	c-2.08,0-4.95,0.08-8.59,0.23c-3.65,0.16-8.33,0.23-14.06,0.23c-13.72,0-21.97-0.15-24.74-0.47c-1.82,0-1.82,0-1.82,0
	c-2.43,0-3.65,0.55-3.65,1.63c0,1.24,2.04,1.86,6.12,1.86c4.08,0,6.6,0.27,7.55,0.82c0.95,0.55,1.43,1.67,1.43,3.38
	c0,92.01,0,92.01,0,92.01c0,2.18-2.95,3.26-8.85,3.26c-1.04,0-1.04,0-1.04,0c-1.22-0.15-2.08-0.23-2.6-0.23
	c-1.74,0-2.6,0.62-2.6,1.86c0,1.09,2.43,1.63,7.29,1.63c4.95,0,4.95,0,4.95,0c0.52,0,3.39,0,8.59,0c5.38-0.16,9.98-0.23,13.8-0.23
	c9.12,0,9.12,0,9.12,0c1.73,0.15,3.56,0.23,5.47,0.23c2.43,0,3.65-0.54,3.65-1.63c0-1.08-0.96-1.63-2.86-1.63
	c-9.38,0-13.8-1.08-13.28-3.26c0-47.99,0-47.99,0-47.99c9.55,0.31,16.28,1.79,20.18,4.43c3.91,2.64,6.29,7.3,7.16,13.98
	c1.21,10.41,2.25,17,3.13,19.8c0.87,2.8,2.6,5.59,5.21,8.39c5.9,6.37,13.54,9.55,22.92,9.55c9.72,0,14.58-2.48,14.58-7.45
	C1144.15,1368.04,1142.24,1366.41,1138.42,1366.41L1138.42,1366.41z M1070.97,1318.89c0-38.2,0-38.2,0-38.2
	c0-2.64,0.48-4.31,1.43-5.01c0.95-0.7,3.43-1.05,7.42-1.05c15.45,0,23.18,6.99,23.18,20.96
	C1103,1311.13,1092.32,1318.89,1070.97,1318.89L1070.97,1318.89z M1249.89,1297.23c-0.52-4.19-0.52-4.19-0.52-4.19
	c-0.78-9.78-0.78-9.78-0.78-9.78c-0.78-8.39-0.78-8.39-0.78-8.39c-0.26-4.89-0.26-4.89-0.26-4.89c-2.26,0.62-4.08,0.93-5.47,0.93
	c-16.5,0.31-27.44,0.47-32.82,0.47c-60.68-0.47-60.68-0.47-60.68-0.47c-1.56,13.2-2.34,22.05-2.34,26.55c0,3.57,0.78,5.36,2.34,5.36
	c1.73,0,2.86-1.78,3.39-5.36c1.39-9.78,4.12-15.99,8.2-18.64c4.08-2.64,12.89-3.88,26.43-3.73c0,83.62,0,83.62,0,83.62
	c0,6.52-0.09,10.45-0.26,11.76c-0.18,1.32-0.96,2.14-2.34,2.45c-0.7,0.31-2.08,0.47-4.17,0.47c-5.73,0.16-8.59,0.78-8.59,1.86
	c0,1.09,1.73,1.63,5.21,1.63c6.25,0,6.25,0,6.25,0c5.73,0,10.42-0.08,14.06-0.23c3.65,0,5.64,0,5.99,0c1.39,0,3.73,0,7.03,0
	c3.3,0.16,5.73,0.23,7.29,0.23c1.82,0,1.82,0,1.82,0c2.95,0,4.43-0.54,4.43-1.63c0-1.08-2.52-1.71-7.55-1.86
	c-5.04-0.15-7.55-1.71-7.55-4.66c0-93.64,0-93.64,0-93.64c3.65-0.15,6.34-0.23,8.07-0.23c11.81,0,19.36,2.8,22.66,8.39
	c2.43,4.04,3.91,9.24,4.43,15.61c0.17,2.95,1.39,4.43,3.65,4.43c2.08,0,3.13-1.08,3.13-3.26
	C1250.15,1299.56,1250.06,1298.63,1249.89,1297.23L1249.89,1297.23z"/>
<path class="st1" d="M203.43,1145.27c5.07-2.74,10.35-4.1,15.83-4.1c1.56,0,3.42,0.09,5.57,0.29c2.14,0.19,4.2,0.49,6.16,0.88
	c0.38-1.56,1.07-3.81,2.05-6.74c0.97-2.93,2.24-5.57,3.81-7.91c9.38-16.8,18.76-33.71,28.14-50.71s19.73-34.88,31.07-53.64
	c1.95-2.73,3.22-4.2,3.81-4.4c0.59-0.19,1.47,0.69,2.64,2.64c14.46,19.55,30.09,39.48,46.9,59.8c16.8,20.33,33.22,39.48,49.25,57.45
	c17.19,19.15,33.8,34.88,49.83,47.19c16.02,12.31,31.46,21.99,46.32,29.02c14.85,7.04,28.92,11.92,42.21,14.66
	c13.28,2.73,25.8,4.1,37.52,4.1c18.76,0,36.83-2.25,54.23-6.74c17.39-4.5,31.56-10.26,42.5-17.29c1.56-1.17,2.35-2.15,2.35-2.93
	c0-2.74-1.57-3.13-4.69-1.17c-9.38,6.64-21.6,12.02-36.64,16.12c-15.05,4.1-30.59,6.16-46.61,6.16c-10.55,0-20.23-0.98-29.02-2.93
	c-8.79-1.96-17.79-5.08-26.97-9.38c-9.19-4.31-18.67-10.17-28.43-17.59c-9.77-7.43-20.72-16.81-32.83-28.14
	c-33.22-30.87-60.59-59.51-82.08-85.89c-21.5-26.38-40.26-50.32-56.28-71.82c0-1.17,0.78-2.35,2.35-3.52
	c12.5-8.99,25.21-17.68,38.11-26.09c12.9-8.4,25.21-16.31,36.93-23.74c21.49-13.28,39.66-24.33,54.52-33.12
	c14.85-8.79,27.26-15.92,37.23-21.4c9.97-5.47,17.68-9.57,23.16-12.31c5.47-2.73,9.57-4.49,12.31-5.28
	c0.78-0.78,0.97-1.76,0.59-2.93c-2.74-0.78-5.38-1.56-7.91-2.35c-2.55-0.78-4.79-1.76-6.74-2.93c-2.35,0-2.35,0-2.35,0
	c-1.57,0.39-6.74,3.52-15.54,9.38c-8.79,5.86-18.57,12.41-29.31,19.64c-10.75,7.24-21.21,14.27-31.37,21.11
	c-10.17,6.84-17.2,11.43-21.11,13.78c-16.42,10.95-34.4,22.57-53.94,34.88c-19.55,12.31-39.48,24.53-59.8,36.64
	c-1.96,1.57-3.43,2.05-4.4,1.47c-0.98-0.59-0.69-2.24,0.88-4.98c14.46-24.23,27.45-45.92,38.99-65.08
	c11.52-19.15,22.37-36.73,32.54-52.76c1.95-3.12,4.3-4.69,7.04-4.69c3.52-0.38,7.71-0.68,12.6-0.88c4.88-0.19,8.3-0.29,10.26-0.29
	c1.56-1.56,1.76-3.32,0.59-5.28c-15.64,1.17-28.73,1.96-39.28,2.35c-10.55,0.39-21.89,0.59-34,0.59c-3.13,0-5.96-0.09-8.5-0.29
	c-2.55-0.19-4.79-0.29-6.74-0.29c-4.69-0.38-10.17-0.88-16.42-1.47c-6.26-0.59-10.95-1.26-14.07-2.05
	c-3.91-1.17-5.86-3.32-5.86-6.45c-0.79,0-1.76,0.69-2.93,2.05c-1.17,1.37-2.25,2.93-3.22,4.69c-0.98,1.76-1.86,3.52-2.64,5.28
	c-0.79,1.76-1.17,2.84-1.17,3.22c0,2.35,2.14,3.52,6.45,3.52c8.99,0,18.95-0.59,29.9-1.76c10.94-1.17,21.69-1.76,32.24-1.76
	c1.95,0,2.93,0.59,2.93,1.76c0,0.39-0.1,0.69-0.29,0.88c-0.2,0.2-0.29,0.49-0.29,0.88c-7.04,14.46-14.66,29.71-22.86,45.73
	c-8.21,16.03-16.91,32.24-26.09,48.66c-9.19,16.42-18.47,32.64-27.85,48.66c-9.38,16.03-18.57,31.27-27.55,45.73
	c-9.77,15.64-18.86,29.41-27.26,41.33c-8.41,11.93-15.54,21.4-21.4,28.43c0,1.17,1.17,1.76,3.52,1.76
	C194.64,1150.54,198.35,1148,203.43,1145.27z M626.42,1069.05c-0.98-0.38-1.86-0.19-2.64,0.59c-5.08,6.65-11.43,13.78-19.05,21.4
	c-7.62,7.62-15.93,14.66-24.92,21.11c-9,6.45-18.28,11.83-27.85,16.12c-9.58,4.31-18.86,6.45-27.85,6.45
	c-14.46,0-21.69-8.01-21.69-24.04c0-7.81,1.17-15.54,3.52-23.16c2.35-7.62,4.49-13.19,6.45-16.71c12.5,0,23.25-1.66,32.24-4.98
	c8.99-3.32,16.42-7.42,22.28-12.31c5.86-4.88,10.26-10.06,13.19-15.54c2.93-5.47,4.4-10.55,4.4-15.24c0-3.12-1.08-5.66-3.22-7.62
	c-2.15-1.95-5.96-2.93-11.43-2.93c-9.77,0-20.03,3.62-30.78,10.85c-10.75,7.24-20.62,16.22-29.61,26.97
	c-9,10.75-16.32,22.48-21.98,35.18c-5.67,12.71-8.5,24.53-8.5,35.47c0,16.42,9.18,24.62,27.55,24.62c11.33,0,22.76-2.25,34.3-6.74
	c11.52-4.49,22.66-10.35,33.42-17.59c10.75-7.23,20.71-15.24,29.9-24.04c9.18-8.79,17.09-17.29,23.74-25.5
	C627.89,1070.23,627.39,1069.45,626.42,1069.05z M553.43,1054.1c-8.6,8.02-18.57,12.02-29.9,12.02c-1.17,0-2.74-0.09-4.69-0.29
	c-1.96-0.19-3.33-0.49-4.1-0.88c2.34-5.07,5.28-10.35,8.79-15.83c3.52-5.47,7.23-10.55,11.14-15.24c3.9-4.69,7.91-8.5,12.02-11.43
	c4.1-2.93,8.11-4.4,12.02-4.4c5.07,0,7.62,2.55,7.62,7.62C566.33,1036.62,562.03,1046.1,553.43,1054.1z M702.34,926
	c-5.48,0-10.07,2.35-13.78,7.04c-3.72,4.69-5.57,9.58-5.57,14.66c0,4.69,2.35,7.04,7.04,7.04c5.07,0,9.67-2.35,13.78-7.04
	c4.1-4.69,6.16-9.38,6.16-14.07C709.97,928.55,707.42,926,702.34,926L702.34,926z M737.23,1059.97c-0.2-0.97-1.27-0.49-3.22,1.47
	c-4.31,5.86-10.36,12.9-18.17,21.11c-7.82,8.21-16.32,16.03-25.5,23.45c-9.19,7.43-18.47,13.78-27.85,19.05s-17.98,7.91-25.8,7.91
	c-4.31,0-7.72-1.07-10.26-3.22c-2.55-2.14-3.81-5.57-3.81-10.26c0-4.3,1.26-10.16,3.81-17.59c2.54-7.42,5.95-15.54,10.26-24.33
	c4.3-8.79,9.09-17.88,14.36-27.26c5.28-9.38,10.45-17.97,15.54-25.8c0.78-0.78,1.47-1.95,2.05-3.52c0.59-1.56,0.88-2.73,0.88-3.52
	c0-1.17-0.98-1.76-2.93-1.76c-1.57,0-4.79,1.08-9.67,3.22c-4.89,2.15-8.31,4.79-10.26,7.91c-3.13,4.31-7.33,10.75-12.6,19.35
	c-5.28,8.6-10.55,17.59-15.83,26.97c-5.28,9.38-9.88,18.47-13.78,27.26c-3.91,8.79-5.86,15.74-5.86,20.81
	c0,4.31,0.88,7.72,2.64,10.26c1.76,2.55,3.9,4.6,6.45,6.16c2.54,1.57,5.37,2.55,8.5,2.93c3.12,0.39,5.86,0.59,8.21,0.59
	c6.64,0,14.07-1.36,22.28-4.1c8.21-2.73,16.21-6.64,24.04-11.73c10.16-6.64,21.3-15.44,33.42-26.38
	c12.11-10.94,22.86-22.47,32.24-34.59C737.13,1062.41,737.42,1060.95,737.23,1059.97z M844.81,924.54
	c-0.39-0.97-0.98-1.47-1.76-1.47c-5.86,1.96-12.6,4.5-20.23,7.62c-7.62,3.13-13.58,5.67-17.88,7.62
	c-3.52,5.86-7.53,12.22-12.02,19.05c-4.5,6.84-8.89,13.88-13.19,21.11c-4.31,7.24-8.6,14.46-12.9,21.69
	c-4.31,7.24-8.21,13.78-11.73,19.64c-29.9,0.59-29.9,0.59-29.9,0.59c-3.52,2.74-6.06,5.48-7.62,8.21c0,1.57,0.97,2.34,2.93,2.34
	c1.17,0,5.18-0.29,12.02-0.88c6.83-0.59,12.6-1.07,17.29-1.47c-13.69,22.28-24.04,41.04-31.07,56.28s-10.55,26.78-10.55,34.59
	c0,9,2.34,15.34,7.04,19.05c4.69,3.71,10.16,5.57,16.42,5.57c11.73,0,23.25-1.96,34.59-5.86c11.33-3.9,23.64-10.16,36.93-18.76
	c1.95-0.78,2.34-1.85,1.17-3.22c-1.17-1.36-2.35-1.47-3.52-0.29c-9,5.48-17.5,9.87-25.5,13.19c-8.02,3.33-15.15,4.98-21.4,4.98
	c-12.9,0-19.35-7.04-19.35-21.11c0-10.16,2.93-22.08,8.79-35.76c5.86-13.68,14.26-30.28,25.21-49.83c5.86-0.38,12.7-0.78,20.52-1.17
	c7.81-0.38,15.44-0.78,22.86-1.17c7.42-0.38,14.26-0.68,20.52-0.88c6.25-0.19,10.94-0.29,14.07-0.29c0.78-0.38,1.17-0.97,1.17-1.76
	c0-0.78-0.59-1.56-1.76-2.35c-72.7,0-72.7,0-72.7,0c7.81-13.68,15.92-27.35,24.33-41.04c8.4-13.68,17.09-26.77,26.09-39.28
	c1.95-3.12,4.88-5.76,8.79-7.91c3.9-2.14,7.42-3.61,10.55-4.4C844.61,926.4,845.19,925.52,844.81,924.54z M1199.79,732.83
	c-3.33-5.66-7.62-10.06-12.9-13.19c-5.28-3.12-10.85-5.37-16.71-6.74c-5.86-1.36-11.53-2.05-17-2.05
	c-21.89,0-43.68,7.91-65.37,23.74c-21.69,15.83-43.09,36.26-64.2,61.26c-21.11,25.02-41.73,52.76-61.85,83.25
	c-20.13,30.49-39.57,60.39-58.33,89.7c-16.03,25.41-31.86,51.3-47.49,77.68c-15.64,26.38-31.66,54.43-48.07,84.13
	c-1.17,2.35-1.76,4.5-1.76,6.45c0,2.74,1.56,4.59,4.69,5.57c3.12,0.97,5.66,1.47,7.62,1.47c2.73,0,5.66-3.12,8.79-9.38
	c4.3-8.21,9.38-17.59,15.24-28.14c5.86-10.55,11.52-20.71,17-30.49c13.68-18.37,25.11-30.87,34.3-37.52
	c9.18-6.64,15.54-9.97,19.05-9.97c1.17,0,1.76,0.98,1.76,2.93c0,3.52-2.15,9.48-6.45,17.88c-4.31,8.41-9.09,17.59-14.36,27.55
	s-10.07,19.84-14.36,29.61c-4.31,9.77-6.45,17.79-6.45,24.04c0,6.65,1.95,11.82,5.86,15.54c3.9,3.71,9.18,5.57,15.83,5.57
	c8.59,0,18.07-2.64,28.43-7.91c10.35-5.28,20.71-12.21,31.07-20.81c10.35-8.59,20.52-18.17,30.49-28.73
	c9.97-10.55,18.66-21.11,26.09-31.66c0-1.56-0.39-2.34-1.17-2.34c-0.79,0-1.57,0.39-2.34,1.17c-21.11,28.14-39.87,48.07-56.28,59.8
	c-16.42,11.73-29.12,17.59-38.11,17.59c-5.48,0-9.77-1.56-12.9-4.69c-3.13-3.12-4.69-7.81-4.69-14.07c0-5.47,1.76-12.7,5.28-21.69
	c3.52-8.99,7.71-18.17,12.6-27.55c4.88-9.38,9.87-18.17,14.95-26.38c5.07-8.21,9.18-14.66,12.31-19.35
	c3.52-4.69,5.28-8.21,5.28-10.55c0-2.73-1.76-4.1-5.28-4.1c-4.69,0-10.36,1.76-17,5.28c-6.65,3.52-13.48,7.62-20.52,12.31
	c-7.04,4.69-13.48,9.38-19.35,14.07s-10.17,8.21-12.9,10.55c23.45-46.11,45.04-86.08,64.78-119.89
	c19.73-33.8,38.01-62.53,54.82-86.18c16.8-23.64,32.34-42.89,46.61-57.75c14.26-14.85,27.65-26.47,40.16-34.88
	c12.5-8.4,24.13-14.07,34.88-17c10.75-2.93,21.2-4.4,31.37-4.4c11.73,0,21.3,1.67,28.73,4.98c7.42,3.33,13.19,7.24,17.29,11.73
	c4.1,4.5,6.83,9.09,8.21,13.78c1.36,4.69,2.05,8.41,2.05,11.14c0,0.79,0.29,1.47,0.88,2.05c0.59,0.59,1.17,0.29,1.76-0.88
	c0.59-1.17,1.17-3.32,1.76-6.45c0.59-3.12,0.88-7.81,0.88-14.07C1204.77,745.83,1203.11,738.5,1199.79,732.83z M1229.1,881.16
	c-11.14,0.59-22.97,0.88-35.47,0.88c-9.77,0-15.93-0.19-18.47-0.59c-2.55-0.38-4.2-1.17-4.98-2.35c-0.39-1.17-0.98-1.76-1.76-1.76
	c-2.35,2.35-3.52,5.67-3.52,9.97c0,3.91,3.12,5.86,9.38,5.86c3.12,0,7.42-0.38,12.9-1.17c5.47-0.78,11.33-1.66,17.59-2.64
	c6.25-0.97,12.7-1.85,19.35-2.64c6.64-0.78,12.7-1.17,18.17-1.17c2.34,0,3.52,0.59,3.52,1.76s-0.2,2.15-0.59,2.93
	c-3.52,7.43-7.53,15.74-12.02,24.92c-4.5,9.19-9.19,18.47-14.07,27.85c-4.89,9.38-9.77,18.47-14.66,27.26
	c-4.89,8.79-9.09,16.71-12.6,23.74c-4.69,8.21-9.87,17.5-15.54,27.85c-5.67,10.36-11.53,21.11-17.59,32.24
	c-6.06,11.14-12.41,22.48-19.05,34c-6.65,11.53-13.1,22.57-19.35,33.12c-1.17,1.96-2.64,4.2-4.4,6.74
	c-1.76,2.55-5.18,6.55-10.26,12.02c3.52,2.93,3.52,2.93,3.52,2.93c5.47-4.3,11.52-8.01,18.17-11.14c6.64-3.12,11.52-4.69,14.66-4.69
	c1.56,0,3.52,0.49,5.86,1.47c2.35,0.98,4.88,2.25,7.62,3.81c10.94,5.48,22.86,9.28,35.76,11.43c12.9,2.14,25.01,3.22,36.35,3.22
	c19.54,0,37.03-2.84,52.47-8.5c15.44-5.66,28.53-12.99,39.28-21.98c10.75-8.99,19.05-19.05,24.92-30.19
	c5.86-11.14,8.79-22.18,8.79-33.12c0-8.99-2.05-16.12-6.16-21.4c-4.1-5.28-9.09-9.57-14.95-12.9c-5.86-3.32-12.12-5.66-18.76-7.04
	c-6.65-1.36-12.71-2.64-18.17-3.81c-0.79,0-1.17-0.38-1.17-1.17c0-1.17,0.38-1.76,1.17-1.76c15.24-3.52,28.14-8.5,38.69-14.95
	c10.55-6.45,19.05-13.28,25.5-20.52c6.45-7.23,11.04-14.56,13.78-21.98c2.73-7.42,4.1-13.87,4.1-19.35
	c0-10.55-2.25-18.95-6.74-25.21c-4.5-6.25-11.14-11.14-19.93-14.66c-8.79-3.52-19.93-5.76-33.42-6.74
	c-13.48-0.97-29.02-1.47-46.61-1.47C1254.02,880.28,1240.24,880.57,1229.1,881.16z M1344.01,949.46
	c-3.33,8.21-7.72,15.64-13.19,22.28c-5.48,6.65-11.63,12.41-18.47,17.29c-6.84,4.89-13.78,8.89-20.81,12.02
	c-3.13,1.17-6.94,2.05-11.43,2.64c-4.5,0.59-8.5,0.88-12.02,0.88c-4.31,0-8.41-0.59-12.31-1.76c-3.91-1.17-8.02-1.76-12.31-1.76
	c-1.96,0-3.52,0.69-4.69,2.05c-1.17,1.37-1.76,3.03-1.76,4.98c0,2.35,0.29,3.81,0.88,4.4s1.47,1.08,2.64,1.47
	c5.07,0,10.94-0.68,17.59-2.05c6.64-1.36,12.7-2.05,18.17-2.05c15.63,0.79,27.75,4.2,36.35,10.26c8.59,6.06,12.9,14.76,12.9,26.09
	c0,13.29-3.22,25.7-9.67,37.23c-6.45,11.53-14.95,21.5-25.5,29.9c-10.55,8.41-22.38,15.05-35.47,19.93
	c-13.1,4.89-26.29,7.53-39.57,7.91c-10.55,0-19.35-1.17-26.38-3.52c-7.04-2.34-12.81-5.18-17.29-8.5c-4.5-3.32-7.72-6.74-9.67-10.26
	c-1.96-3.52-2.93-6.45-2.93-8.79c0.38-3.12,1.56-6.64,3.52-10.55c14.85-29.31,29.7-58.23,44.56-86.77
	c14.85-28.53,28.73-54.32,41.62-77.39c3.9-6.64,8.11-13.78,12.6-21.4c4.49-7.62,8.89-14.16,13.19-19.64
	c2.73-3.52,5.95-5.76,9.67-6.74c3.71-0.97,7.71-1.47,12.02-1.47c6.25,0,12.5,0.49,18.76,1.47c6.25,0.98,11.92,2.84,17,5.57
	c5.07,2.74,9.18,6.55,12.31,11.43c3.12,4.89,4.69,11.05,4.69,18.47C1349,932.45,1347.33,941.25,1344.01,949.46z M1575.59,1037.98
	c-1.76-0.78-3.03-0.19-3.81,1.76c-5.48,7.82-12.31,15.05-20.52,21.69c-8.21,6.65-17.4,9.97-27.55,9.97
	c-10.17,0-17.29-3.52-21.4-10.55s-6.16-16.02-6.16-26.97c0-7.81,0.68-15.04,2.05-21.69c1.36-6.64,3.42-12.11,6.16-16.42
	c0.78-1.56,0.59-2.64-0.59-3.22c-1.17-0.59-2.34-0.49-3.52,0.29c-1.57,0.79-3.33,1.37-5.28,1.76c-1.96,0.39-3.91,0.79-5.86,1.17
	c-3.91,0.79-6.65,3.22-8.21,7.33c-1.57,4.1-2.74,7.72-3.52,10.85c-12.12,1.17-23.45,4.89-34,11.14
	c-10.55,6.26-19.93,13.88-28.14,22.86c-3.91,3.91-8.12,9-12.6,15.24c-4.5,6.26-8.7,12.9-12.6,19.93
	c-3.91,7.04-7.14,14.27-9.67,21.69c-2.55,7.43-3.81,14.66-3.81,21.69c0,12.51,7.04,18.76,21.11,18.76c4.69,0,10.55-1.57,17.59-4.69
	c8.21-4.3,15.92-9.77,23.16-16.42c7.23-6.64,13.78-13.97,19.64-21.98c5.86-8.01,10.94-16.02,15.24-24.04
	c4.3-8.01,7.81-15.14,10.55-21.4c3.9,6.65,9.09,11.63,15.54,14.95c6.45,3.33,12.99,4.98,19.64,4.98c12.11,0,22.96-3.61,32.54-10.85
	c9.57-7.23,17.68-15.33,24.33-24.33C1577.44,1039.94,1577.35,1038.77,1575.59,1037.98z M1470.65,1069.05
	c-4.89,10.17-10.85,20.23-17.88,30.19s-14.46,18.67-22.28,26.09c-7.82,7.43-15.05,11.14-21.69,11.14c-3.52,0-5.77-1.17-6.74-3.52
	c-0.98-2.35-1.47-4.88-1.47-7.62c-0.39-8.99,1.47-18.47,5.57-28.43c4.1-9.97,8.69-19.25,13.78-27.85c3.9-6.64,8.21-13.09,12.9-19.35
	c4.69-6.25,9.38-11.82,14.07-16.71c4.69-4.88,9.38-8.79,14.07-11.73s9.18-4.4,13.48-4.4c1.56,0,2.34,0.98,2.34,2.93
	c0,4.31,0.19,8.79,0.59,13.48c0.38,4.69,0.97,8.79,1.76,12.31C1478.36,1051.08,1475.53,1058.89,1470.65,1069.05z M1559.47,1128.56
	c7.42-4.1,13.28-7.91,17.59-11.43c0.38-0.38,0.97-0.78,1.76-1.17c0.78-0.38,0.78,0.2,0,1.76c-9.77,17.2-20.52,35.47-32.24,54.82
	c-11.73,19.35-24.14,38.59-37.23,57.75c-13.09,19.15-26.68,37.52-40.75,55.11c-14.07,17.59-28.63,33.02-43.68,46.31
	c-15.04,13.28-30.49,23.94-46.31,31.95c-15.83,8.01-31.75,12.02-47.78,12.02c-19.93,0-33.8-4.31-41.62-12.9
	c-7.81-8.6-11.73-18.17-11.73-28.73c0-1.57-0.38-2.15-1.17-1.76c-0.78,0.38-1.36,1.17-1.76,2.34c-0.78,1.95-1.47,4.59-2.05,7.91
	c-0.59,3.32-0.88,6.54-0.88,9.67c0,13.68,4.5,23.25,13.48,28.73c9,5.47,19.15,8.21,30.49,8.21c19.15,0,37.43-4.1,54.82-12.31
	c17.4-8.21,34.2-19.35,50.42-33.42c16.22-14.07,31.95-30.59,47.19-49.54c15.24-18.96,30.1-39.09,44.56-60.39
	c14.46-21.31,28.82-43.38,43.09-66.25c14.26-22.86,28.43-45.04,42.5-66.54c5.86-7.42,12.02-15.44,18.47-24.04
	c6.45-8.59,12.4-16.71,17.88-24.33c5.47-7.62,9.97-14.26,13.48-19.93c3.52-5.66,5.28-9.28,5.28-10.85c0-3.12-0.69-6.25-2.05-9.38
	c-1.37-3.12-2.84-5.07-4.4-5.86c-2.74,0-6.16,2.93-10.26,8.79c-4.1,5.86-8.5,13.1-13.19,21.69c-9.77,17.59-18.08,32.93-24.92,46.02
	c-6.84,13.1-12.02,21.4-15.54,24.92c-1.57,1.96-3.91,4.01-7.04,6.16c-3.13,2.15-6.45,4.2-9.97,6.16c-3.52,1.96-6.84,3.52-9.97,4.69
	c-3.13,1.17-5.67,1.76-7.62,1.76c-4.31,0-6.45-2.35-6.45-7.04c0-8.59,4.78-20.61,14.36-36.06c9.57-15.44,21.4-35.47,35.47-60.09
	c0-1.17-0.79-1.76-2.35-1.76c-0.79,0-2.84,0.29-6.16,0.88c-3.33,0.59-5.96,1.08-7.91,1.47c-1.17,0.79-2.25,1.67-3.22,2.64
	c-0.98,0.98-2.25,2.45-3.81,4.4c-13.69,21.11-25.31,39.38-34.88,54.82c-9.58,15.44-14.36,27.07-14.36,34.88
	c0,4.69,1.56,8.21,4.69,10.55c3.12,2.35,7.42,3.52,12.9,3.52C1544.41,1134.72,1552.04,1132.66,1559.47,1128.56z M1807.16,1069.05
	c-0.98-0.38-1.86-0.19-2.64,0.59c-5.08,6.65-11.43,13.78-19.05,21.4c-7.62,7.62-15.93,14.66-24.92,21.11
	c-9,6.45-18.27,11.83-27.85,16.12c-9.58,4.31-18.86,6.45-27.85,6.45c-14.46,0-21.69-8.01-21.69-24.04c0-7.81,1.17-15.54,3.52-23.16
	c2.34-7.62,4.49-13.19,6.45-16.71c12.5,0,23.25-1.66,32.24-4.98c8.99-3.32,16.42-7.42,22.28-12.31
	c5.86-4.88,10.26-10.06,13.19-15.54c2.93-5.47,4.4-10.55,4.4-15.24c0-3.12-1.08-5.66-3.22-7.62c-2.15-1.95-5.96-2.93-11.43-2.93
	c-9.77,0-20.03,3.62-30.78,10.85c-10.75,7.24-20.62,16.22-29.61,26.97c-9,10.75-16.32,22.48-21.99,35.18
	c-5.67,12.71-8.5,24.53-8.5,35.47c0,16.42,9.18,24.62,27.55,24.62c11.33,0,22.76-2.25,34.3-6.74c11.52-4.49,22.66-10.35,33.42-17.59
	c10.75-7.23,20.71-15.24,29.9-24.04c9.18-8.79,17.09-17.29,23.74-25.5C1808.63,1070.23,1808.13,1069.45,1807.16,1069.05z
	 M1734.17,1054.1c-8.6,8.02-18.57,12.02-29.9,12.02c-1.17,0-2.74-0.09-4.69-0.29c-1.96-0.19-3.33-0.49-4.1-0.88
	c2.34-5.07,5.28-10.35,8.79-15.83c3.52-5.47,7.23-10.55,11.14-15.24c3.9-4.69,7.91-8.5,12.02-11.43c4.1-2.93,8.11-4.4,12.02-4.4
	c5.07,0,7.62,2.55,7.62,7.62C1747.07,1036.62,1742.76,1046.1,1734.17,1054.1z M1907.41,1016c-2.55-1.76-5.57-2.64-9.09-2.64
	c-4.69,0-10.07,1.37-16.12,4.1c-6.06,2.74-12.22,6.16-18.47,10.26c-6.26,4.1-12.22,8.5-17.88,13.19c-5.67,4.69-10.46,9-14.36,12.9
	c-1.17,1.17-2.15,1.76-2.93,1.76c-0.79,0-0.59-0.97,0.59-2.93c0.78-1.17,1.95-3.12,3.52-5.86c1.56-2.73,3.22-5.57,4.98-8.5
	c1.76-2.93,3.32-5.76,4.69-8.5c1.36-2.73,2.05-4.69,2.05-5.86c0-3.52-1.57-6.25-4.69-8.21c-3.13-1.95-5.08-2.93-5.86-2.93
	c-0.79,0-2.15,1.76-4.1,5.28c-1.57,3.52-4.5,8.89-8.79,16.12c-4.31,7.24-9.29,15.74-14.95,25.5c-5.67,9.77-11.73,20.23-18.17,31.37
	c-6.45,11.14-12.81,22.19-19.05,33.12c-2.74,4.69-4.1,8.21-4.1,10.55c0,1.17,1.26,2.93,3.81,5.28c2.54,2.35,4.2,3.52,4.98,3.52
	c1.95,0,3.12-0.59,3.52-1.76c5.47-8.59,10.55-17.09,15.24-25.5c4.69-8.4,9.57-16.61,14.66-24.62c5.07-8.01,10.45-15.73,16.12-23.16
	c5.66-7.42,12.21-14.26,19.64-20.52c4.69-4.3,10.16-8.21,16.42-11.73c6.25-3.52,11.92-5.28,17-5.28c4.3,0,7.62,0.59,9.97,1.76
	c2.35,1.17,4.2,2.45,5.57,3.81c1.36,1.37,2.44,2.64,3.22,3.81c0.78,1.17,1.36,1.76,1.76,1.76c1.17,0,1.95-0.59,2.34-1.76
	c0.78-1.95,2.44-4.88,4.98-8.79c2.54-3.9,4.98-7.23,7.33-9.97C1911.22,1019.61,1909.95,1017.76,1907.41,1016z"/>
</svg>
